<!--?xml version="1.0" standalone="no"?-->

<svg version="1.0" xmlns="http://www.w3.org/2000/svg" width="300.000000pt" height="300.000000pt" viewBox="0 0 300.000000 300.000000" preserveAspectRatio="xMidYMid meet">
<g transform="translate(0.000000,300.000000) scale(0.100000,-0.100000)" fill="#111111" stroke="none">


<path class="node" id="node3" d="M1195 2089 c-44 -8 -180 -76 -232 -115 -88 -67 -107 -137 -59 -219
83 -141 235 -165 305 -47 51 87 82 125 93 114 8 -8 7 -24 -1 -56 -23 -94 -10
-151 45 -187 33 -21 96 -25 112 -6 6 6 13 46 17 87 4 41 15 110 26 153 25 102
29 181 9 201 -20 21 -174 72 -230 78 -25 2 -63 1 -85 -3z"></path>
<path class="node" id="node4" d="M2000 2097 c-3 -3 -93 -6 -200 -7 -107 -1 -231 -4 -275 -7 l-80 -6
40 -17 c57 -24 68 -41 67 -106 l0 -56 81 7 c45 3 179 10 297 13 172 6 221 10
245 23 46 26 67 54 63 85 -5 46 -43 64 -144 71 -49 3 -91 3 -94 0z"></path>
<path class="node" id="node5" d="M1545 1869 c-12 -35 -35 -135 -35 -155 0 -20 7 -23 63 -29 34 -4 80
-13 102 -21 21 -7 40 -12 40 -11 1 1 11 19 23 40 29 50 29 97 0 124 -47 43
-183 79 -193 52z"></path>
<path class="node" id="node6" d="M718 1813 c-28 -7 -38 -60 -38 -196 0 -190 49 -429 95 -467 9 -8 33
-9 68 -5 81 10 84 14 65 77 -27 86 -50 242 -62 423 l-11 170 -50 2 c-27 0 -58
-1 -67 -4z"></path>
<path class="node" id="node7" d="M875 1630 c6 -116 37 -328 56 -387 9 -27 16 -32 52 -38 23 -4 76 -16
117 -26 52 -13 128 -21 245 -25 l170 -6 80 40 c44 23 93 54 109 71 24 25 28
35 22 65 -4 20 -16 44 -27 54 -24 24 -104 42 -179 42 -62 0 -188 -23 -221 -40
-35 -19 -19 -112 26 -150 13 -11 32 -11 114 0 75 10 102 10 119 1 36 -19 26
-31 -21 -25 -24 4 -75 1 -115 -5 -59 -9 -77 -9 -100 3 -42 22 -74 87 -71 144
2 32 -5 62 -19 92 -23 48 -28 91 -13 118 6 12 3 25 -13 45 -22 28 -22 28 -61
11 -76 -32 -165 1 -239 88 l-37 43 6 -115z"></path>
<path class="node" id="node8" d="M1232 1694 c-27 -41 -28 -56 -4 -77 34 -31 42 -21 35 46 -3 34 -6 63
-7 64 -1 1 -11 -14 -24 -33z"></path>
<path class="node" id="node9" d="M1506 1644 c-3 -9 -6 -27 -6 -40 0 -36 -42 -74 -82 -74 -18 0 -56 12
-85 27 -51 25 -53 26 -73 8 -11 -10 -20 -31 -20 -47 0 -33 23 -92 39 -103 6
-3 42 1 79 11 89 23 253 23 306 0 21 -9 42 -16 46 -16 14 0 70 92 70 114 0 36
-75 104 -132 121 -69 20 -134 20 -142 -1z"></path>
</g>
<g transform="translate(0.000000,300.000000) scale(0.100000,-0.100000)" fill="#A1A1A1" stroke="none">




</g>
</svg>